<svg version="1.1" id="Capa_1" xmlns="http://www.w3.org/2000/svg" x="0" y="0" viewBox="0 0 409.6 409.6" xml:space="preserve"><path d="M382.321 81.92H27.279C12.24 81.92 0 94.17 0 109.227s12.24 27.307 27.279 27.307H382.32c15.039 0 27.279-12.25 27.279-27.307S397.36 81.92 382.321 81.92zm0 40.96H27.279c-7.513 0-13.626-6.124-13.626-13.653 0-7.53 6.113-13.653 13.626-13.653H382.32c7.513 0 13.626 6.124 13.626 13.653.001 7.529-6.113 13.653-13.625 13.653zm0 54.613H27.279C12.24 177.493 0 189.744 0 204.8s12.24 27.307 27.279 27.307H382.32c15.039 0 27.279-12.25 27.279-27.307s-12.239-27.307-27.278-27.307zm0 40.96H27.279c-7.513 0-13.626-6.123-13.626-13.653s6.113-13.653 13.626-13.653H382.32c7.513 0 13.626 6.124 13.626 13.653.001 7.53-6.113 13.653-13.625 13.653zm0 54.614H27.279C12.24 273.067 0 285.317 0 300.373c0 15.056 12.24 27.307 27.279 27.307H382.32c15.039 0 27.279-12.25 27.279-27.307.001-15.056-12.239-27.306-27.278-27.306zm0 40.96H27.279c-7.513 0-13.626-6.124-13.626-13.653 0-7.53 6.113-13.653 13.626-13.653H382.32c7.513 0 13.626 6.124 13.626 13.653.001 7.529-6.113 13.653-13.625 13.653z"/></svg>